<?xml version="1.0" encoding="UTF-8"?><svg id="Layer_1" xmlns="http://www.w3.org/2000/svg" viewBox="0 0 500 200"><defs><style>.cls-1{fill:#192619;}.cls-2{fill:#566242;}</style></defs><path class="cls-2" d="m207.03,121.52c0,4.96-.92,9.35-2.76,13.17-1.84,3.82-4.45,6.76-7.84,8.82-3.39,2.06-7.25,3.09-11.58,3.09s-8.17-1-11.53-2.99c-3.35-1.99-5.97-4.84-7.84-8.54-1.88-3.7-2.86-7.95-2.95-12.75v-2.86c0-4.98.91-9.38,2.74-13.19,1.83-3.81,4.45-6.75,7.86-8.82,3.41-2.07,7.3-3.11,11.65-3.11s8.15,1.02,11.53,3.07,6,4.97,7.88,8.75c1.87,3.78,2.82,8.12,2.85,13.01v2.34Zm-12.47-2.13c0-5.05-.84-8.89-2.53-11.51-1.69-2.62-4.1-3.93-7.25-3.93-6.15,0-9.4,4.61-9.75,13.83l-.04,3.74c0,4.98.83,8.81,2.48,11.49,1.65,2.68,4.11,4.02,7.37,4.02s5.48-1.32,7.16-3.95c1.68-2.63,2.53-6.42,2.55-11.35v-2.34Z"/><path class="cls-2" d="m235.68,118.76l-3.88-.28c-3.7,0-6.08,1.17-7.13,3.49v23.93h-11.77v-37.8h11.04l.38,4.86c1.98-3.7,4.74-5.55,8.28-5.55,1.26,0,2.35.14,3.28.42l-.21,10.93Z"/><path class="cls-2" d="m237.88,126.73c0-3.82.63-7.2,1.89-10.13s3.06-5.2,5.41-6.79c2.35-1.59,5.09-2.39,8.21-2.39,3.93,0,7.01,1.33,9.22,3.98l.42-3.28h10.69v36.36c0,3.33-.77,6.22-2.32,8.68-1.55,2.46-3.79,4.34-6.72,5.66-2.93,1.32-6.33,1.97-10.2,1.97-2.77,0-5.46-.52-8.05-1.57-2.6-1.05-4.58-2.41-5.96-4.09l4.93-6.92c2.19,2.58,5.08,3.88,8.66,3.88,5.22,0,7.82-2.68,7.82-8.03v-1.19c-2.26,2.49-5.11,3.74-8.56,3.74-4.61,0-8.34-1.76-11.18-5.29-2.84-3.53-4.26-8.25-4.26-14.17v-.42Zm11.81.73c0,3.1.58,5.55,1.75,7.35,1.16,1.81,2.79,2.71,4.89,2.71,2.54,0,4.39-.85,5.55-2.55v-15.89c-1.14-1.72-2.97-2.58-5.48-2.58-2.1,0-3.74.94-4.93,2.81-1.19,1.88-1.78,4.59-1.78,8.16Z"/><path class="cls-2" d="m301.7,145.91c-.42-.77-.79-1.9-1.12-3.39-2.17,2.72-5.19,4.09-9.08,4.09-3.56,0-6.59-1.08-9.08-3.23-2.49-2.15-3.74-4.86-3.74-8.12,0-4.1,1.51-7.2,4.54-9.29,3.03-2.1,7.43-3.14,13.2-3.14h3.63v-2c0-3.49-1.5-5.23-4.51-5.23-2.79,0-4.19,1.38-4.19,4.14h-11.77c0-3.65,1.55-6.62,4.66-8.9,3.11-2.28,7.07-3.42,11.89-3.42s8.63,1.18,11.42,3.53c2.79,2.35,4.23,5.58,4.3,9.68v16.73c.05,3.47.58,6.13,1.61,7.96v.59h-11.77Zm-4.44-53.66h12.44l-9.71,10.97-9.61-.02,6.88-10.95Zm-2.93,45.97c1.47,0,2.68-.31,3.65-.94.97-.63,1.66-1.34,2.08-2.13v-6.04h-3.42c-4.1,0-6.15,1.84-6.15,5.52,0,1.07.36,1.94,1.08,2.6.72.66,1.64,1,2.76,1Z"/><path class="cls-2" d="m329.19,108.11l.38,4.44c2.61-3.42,6.21-5.13,10.79-5.13,3.94,0,6.88,1.18,8.82,3.53,1.94,2.35,2.95,5.89,3.02,10.62v24.35h-11.81v-23.86c0-1.91-.38-3.31-1.15-4.21-.77-.9-2.17-1.34-4.19-1.34-2.31,0-4.02.91-5.14,2.72v26.69h-11.77v-37.8h11.04Z"/><path class="cls-2" d="m358.64,98.36c0-1.68.61-3.05,1.82-4.12,1.21-1.07,2.78-1.61,4.72-1.61s3.5.54,4.72,1.61c1.21,1.07,1.82,2.45,1.82,4.12s-.61,3.05-1.82,4.12c-1.21,1.07-2.78,1.61-4.72,1.61s-3.51-.54-4.72-1.61c-1.21-1.07-1.82-2.45-1.82-4.12Zm12.51,47.54h-11.81v-37.8h11.81v37.8Z"/><path class="cls-2" d="m394.38,137.52c1.65,0,2.93-.45,3.84-1.34.91-.9,1.35-2.15,1.33-3.76h11.04c0,4.15-1.48,7.55-4.45,10.2-2.97,2.65-6.79,3.98-11.48,3.98-5.5,0-9.83-1.72-12.99-5.17s-4.75-8.22-4.75-14.32v-.49c0-3.82.7-7.19,2.11-10.11,1.41-2.92,3.44-5.17,6.1-6.74,2.65-1.57,5.8-2.36,9.43-2.36,4.91,0,8.81,1.36,11.7,4.09s4.33,6.42,4.33,11.07h-11.04c0-1.96-.48-3.46-1.43-4.51-.96-1.05-2.24-1.57-3.84-1.57-3.05,0-4.83,1.94-5.34,5.83-.16,1.24-.24,2.93-.24,5.1,0,3.8.45,6.43,1.36,7.89s2.35,2.2,4.33,2.2Z"/><path class="cls-2" d="m414.08,126.66c0-3.77.73-7.13,2.2-10.08,1.47-2.95,3.57-5.21,6.32-6.79s5.97-2.38,9.68-2.38c5.66,0,10.12,1.75,13.38,5.26,3.26,3.51,4.89,8.27,4.89,14.3v.42c0,5.89-1.64,10.57-4.91,14.03-3.27,3.46-7.7,5.19-13.29,5.19s-9.7-1.61-12.96-4.84c-3.26-3.23-5.02-7.6-5.28-13.12l-.03-1.99Zm11.77.73c0,3.49.55,6.05,1.64,7.69s2.71,2.45,4.86,2.45c4.19,0,6.33-3.23,6.43-9.68v-1.19c0-6.78-2.17-10.16-6.5-10.16-3.94,0-6.07,2.92-6.39,8.77l-.04,2.13Z"/><path class="cls-1" d="m224.02,87.65c-.1,2.11-.67,3.97-1.71,5.59-1.04,1.62-2.5,2.87-4.38,3.76-1.88.89-4.03,1.33-6.44,1.33-3.98,0-7.12-1.3-9.41-3.89-2.29-2.6-3.44-6.26-3.44-10.99v-1.5c0-2.97.52-5.57,1.55-7.8,1.03-2.23,2.52-3.95,4.47-5.16,1.94-1.21,4.19-1.82,6.75-1.82,3.68,0,6.63.97,8.87,2.9,2.23,1.94,3.5,4.6,3.81,8.01h-7.29c-.06-1.85-.52-3.17-1.39-3.98s-2.21-1.21-4-1.21-3.15.68-4,2.04-1.29,3.53-1.33,6.52v2.14c0,3.23.41,5.55,1.22,6.93.81,1.39,2.21,2.08,4.2,2.08,1.68,0,2.96-.4,3.85-1.19.89-.79,1.36-2.05,1.42-3.77h7.27Z"/><path class="cls-1" d="m239.84,97.91c-.25-.46-.47-1.13-.67-2.02-1.29,1.62-3.1,2.44-5.41,2.44-2.12,0-3.93-.64-5.41-1.93-1.49-1.28-2.23-2.9-2.23-4.84,0-2.44.9-4.29,2.71-5.54,1.8-1.25,4.43-1.87,7.87-1.87h2.17v-1.19c0-2.08-.9-3.12-2.69-3.12-1.67,0-2.5.82-2.5,2.47h-7.02c0-2.18.93-3.94,2.78-5.3,1.85-1.36,4.22-2.04,7.09-2.04s5.14.7,6.81,2.1c1.67,1.4,2.52,3.32,2.56,5.77v9.97c.03,2.07.35,3.65.96,4.75v.35h-7.02Zm-4.39-4.58c.87,0,1.6-.19,2.18-.56.58-.37.99-.8,1.24-1.27v-3.6h-2.04c-2.44,0-3.66,1.1-3.66,3.29,0,.64.21,1.16.65,1.55.43.4.98.59,1.64.59Z"/><path class="cls-1" d="m251.33,97.91v-17.66h-3.27v-4.87h3.27v-1.79c0-2.57.76-4.56,2.27-5.98,1.51-1.42,3.64-2.12,6.37-2.12,1,0,2.1.15,3.29.44l.02,5.16c-.43-.12-1.01-.19-1.73-.19-2.12,0-3.19.92-3.19,2.75v1.73h4.39v4.87h-4.39v17.66h-7.04Z"/><path class="cls-1" d="m275.63,98.33c-3.46,0-6.25-1.03-8.39-3.09-2.14-2.06-3.21-4.74-3.21-8.05v-.58c0-2.3.43-4.34,1.28-6.1.85-1.76,2.1-3.13,3.74-4.09,1.64-.96,3.58-1.45,5.83-1.45,3.16,0,5.66.98,7.5,2.95,1.83,1.96,2.75,4.7,2.75,8.21v2.73h-13.95c.25,1.26.8,2.26,1.65,2.98.85.72,1.94,1.08,3.29,1.08,2.22,0,3.96-.78,5.21-2.33l3.21,3.79c-.87,1.21-2.11,2.17-3.72,2.88-1.6.71-3.33,1.07-5.17,1.07Zm-.87-32.42h7.41l-5.79,6.54h-5.73s4.1-6.54,4.1-6.54Zm.08,14.47c-2.05,0-3.28,1.36-3.66,4.08h7.08v-.54c.03-1.12-.26-2-.85-2.61-.6-.62-1.45-.93-2.56-.93Z"/><path class="cls-2" d="m160.61,95.77c-.19.91-.96,1.46-1.36,2.24-.23.45-.45.92.13,1.27.52.31,1.17.56,1.52-.11.87-1.65,2.49-2.59,3.67-3.95,2.34-2.71,4.37-5.68,6.83-8.29.61-.65.52-1.82,1.77-2.17-1.31,2.44-3.18,4.26-4.75,6.32-.24.31-.53.61-.67.97-.18.43-.07.75.52.79,2.35.15,3.36.99,3.98,3.25.79,2.92-1.19,6.03-3.93,6.16-2.1.1-3.9-1.86-3.67-4.22.38.87.59,1.63,1.04,2.29,1.27,1.87,3.27,2.09,4.88.53,1.8-1.76,1.78-4.96-.04-6.71-1.37-1.31-2.9-1.35-4.38.38-1.19,1.39-2.58,2.48-3.88,3.71-.95.9-1.47,1.84-.87,3.29.51,1.23.12,2.63-.15,3.91-.13.6-.14.99.38,1.37,1.22.88,1.71,2.14,1.64,3.59-.05,1.05.34,1.68,1.25,2.25,3.51,2.21,5.83,5.34,7.02,9.33,1.04,3.45,1.73,6.95,1.63,10.57-.08,2.8-.85,5.48-1.5,8.19-.03-.86.16-1.68.37-2.51,1.78-6.95.43-13.57-2.6-19.83-1.25-2.57-3.63-4.43-6.24-5.81-.14-.07-.34-.12-.48-.07-1.08.36-1.54.13-1.47-1.04.06-1.07-.43-1.98-.51-2.99-.02-.27-.15-.55-.48-.51-.32.04-.39.35-.38.61.11,2.11-.24,4.29,1.9,5.87.78.57,1.02,1.86,1.67,3.13-1.46-.85-2.11-1.89-2.75-3.04.75,2.05.03,4.21.68,6.25.24.75.07,1.52.06,2.28-.01,1.41-.14,2.97.8,4.25,1.81,2.48,2.18,5.48,2.98,8.31.27.96.56,1.95.26,3.01-.4-2.18-1.09-4.28-1.77-6.38-.4-1.22-.79-2.45-1.41-3.58-.39-.71-.91-.84-1.11.06-.47,2.08-1.08,4.14-1.16,6.3-.02.39.02.78.04,1.21-1.87-.63-2.53,1.05-3.44,1.89-1.31,1.2-2.63,2.28-4.36,3.25.07-.75.49-.96.8-1.22,1.68-1.39,3.35-2.77,5.05-4.14.34-.27.73-.75.51-.97-1.32-1.33.57-2.37.26-3.58-.03-.11.15-.29.27-.4.09-.08.33-.05.36-.13.52-1.31,1.1-2.61,1.48-3.96.13-.45-.53-.76-1.02-.89-.71-.19-1.42-.37-2.2-.57.16-.21.24-.4.31-.4,1.73.07,1.71-1.74,2.69-2.47.32-.24.15-.66.05-1-.39-1.32-.6-2.63-.41-4.04.14-1.07-.31-2.2-.66-3.17-.38-1.04-1.38-.17-1.57.35-.46,1.21-1.39,1.48-2.44,1.71,0,0,.03.03.03.03.41-.45.74-1.05,1.25-1.32,2.04-1.1,1.92-3.07,2.09-4.9.17-1.83-2.99-4.26-4.67-3.68-.93.32-1.52.88-1.55,1.92,0,.25-.06.57-.45.51-.32-.05-.44-.33-.41-.6.07-.61.16-1.16-.23-1.76-.27-.42.27-.81.64-1.01.64-.33,1.48-.35,1.4-1.44-.09-1.16-.04-2.37-1.04-3.17-1.95-1.54-6.04-2.66-8.87-.73-1.47,1.01-2.44,2.31-2.4,4.04.04,1.87,1.26,3.04,3.01,3.66.44.16.87.37,1.47.62-2.17.13-4.2-1.16-4.75-2.86-.62-1.91.22-4.52,1.85-5.56.71-.45,1.5-.76,2.25-1.15.46-.24.79-.5.55-1.14-1.55-4.03.94-7.6,5.36-7.72,2.37-.07,4.57.56,6.7,1.54,1.15.53,1.73,1.5,1.96,2.68.11.54.17,1.05.74,1.32,0,0-.03-.03-.03-.03Zm-14.66-.36c-.13.69.03,1.47.25,2.24.33,1.13,1.42,1.47,2.38.76,1.08-.8,1.96-.66,2.84.37,1.43,1.69,3.15,2.16,4.71.76.42-.38.95-.71,1.48-.87,1.63-.47,1.84-1.88,1.95-3.15.11-1.32-.43-2.64-1.74-3.19-1.96-.83-4-1.52-6.15-1.57-3.31-.08-5.4,1.63-5.7,4.65Zm15.05,9.15c.25-2.89-.69-4.83-2.43-5.02-1.06-.11-3.74,1.87-3.84,2.84-.19,1.84,1.67,4.66,3.1,4.71,1.3.05,3.07-1.36,3.17-2.53Z"/><path class="cls-2" d="m64.84,156.45c.7-.54,1.52-.37,2.29-.37,2.35,0,4.7.13,7.05.06,2.8-.08,5.48-.83,7.8-2.35,2.1-1.38,4.15-2.27,6.76-2.21,4.23.09,7.8-1.86,10.98-4.48,1.53-1.26,3.22-2.37,4.45-3.98.53-.68,1.4-.79,2.16-.94,2.6-.53,3.98-2.32,4.98-4.55.13-.28.19-.6.35-.86.46-.77.75-1.54-.02-2.29-1.17-1.15-2.2-1.35-3.33-.7-.27.16-.53.32-.8.48-.07.04-3.07,1.29-3.12,1.3-.44.09-.61-.15-.52-.52.12-.48-.51-1.4.64-1.34,2.09.12,3.87-.8,5.69-1.6.36-.16.87-.21.75-.74-.11-.47-.61-.48-1-.47-2.93.05-5.29-1.6-7.83-2.68,1.63.67,3.33,1.1,5,1.64,2.76.89,5.59,1.48,8.28-.34.32-.22.77-.51,1.08-.44,2.96.69,5.16-1.21,7.64-2.14.19-.07.38-.24.73,0-1.42.71-2.75,1.45-4.14,2.06-2.73,1.19-3.94,3.72-5.46,5.98-.11.17-.25.42-.03.6.35.29.68.04.98-.13,1.74-.99,3.62-1.65,5.49-2.36,2.05-.78,4.13-1.36,6.35-1.3,1.19.03,2.05-.4,2.75-1.48,1.19-1.84,2.58-3.56,3.88-5.33.24.15.17.34.09.46-1.49,2.14-2.93,4.31-4.63,6.29-.64.74-1.36,1-2.37.73-1.14-.31-2.34-.06-3.42.26-5.69,1.68-10.98,4.16-14.91,8.78-1.55,1.83-2.45,4.16-2.78,6.51-.43,3.11-2.09,5.08-4.79,6.36-1.25.59-2.02,1.45-2.27,2.87-.32,1.82-1.47,3.04-3.3,3.42-4.89,1.02-7.51,4.23-8.73,8.81-.72,2.72-1.92,5.21-3.41,7.57-.08.13-.26.2-.4.3-.08-.14-.17-.24-.15-.27,2.24-3.1,2.96-6.85,4.42-10.28,1.39-3.29,3.94-5.54,7.52-6.39,2.19-.52,3.52-1.75,3.82-4.02.11-.88.58-1.52,1.42-1.94.95-.47,1.87-1.03,2.74-1.64,1.04-.72,1.83-1.64,2.11-2.94.48-2.2.94-4.41,2.23-6.34.18-.28.44-.65.2-.98-.24-.33-.66-.15-1-.11-1.37.19-2.48.89-3.47,1.83-3.17,3-6.5,5.75-10.75,7.18-1.78.6-3.55.77-5.37.66-1.35-.08-2.52.2-3.62,1-4.1,2.97-8.64,4.2-13.7,3.36-1.76-.29-3.54-.25-5.31-.03h.01Z"/><path class="cls-2" d="m132.22,134.89c.68,3.16,1.3,6.02.17,9.12-.47-1.97-.32-3.77-.54-5.55-.04-.29.07-.72-.31-.8-.39-.08-.7.28-.78.6-.45,1.66-1.97,1.95-3.24,2.47-1.7.71-2.66,1.91-2.7,3.79-.01.62-.06,1.24-.1,1.86-.03.48-.13.89-.79.78-.75-.12-.89.41-.96.97-.09.7-.32,1.31-1.08,1.52-.6.16-1.34.45-1.78-.03-.52-.57.29-.97.52-1.45.55-1.13,1.58-2.04,1.64-3.41,0-.12.08-.28.17-.34,1.83-1.21,2.09-3.44,3.34-5.03.2-.25.46-.56.25-.83-.72-.9.04-1.29.54-1.81,1.29-1.34,2.56-2.7,4.23-3.59.6-.32.72-.99,1.07-1.49,1.58-2.29,3.11-4.62,4.75-6.87.74-1.01,1.23-2.14,1.93-3.16,1.43-2.08,3.49-3.53,5.4-5.08,2.33-1.89,4.36-4.01,6.01-6.5.16-.25.4-.45.74-.83.23,1.28-.47,1.93-1.07,2.65-2.79,3.31-6.43,5.68-9.56,8.6-1.57,1.47-2.36,3.51-3.62,5.22-1.42,1.92-2.65,3.97-3.98,5.96-.51.76-.61,1.5.12,2.14,2.1,1.85,2.22,4.28,2.19,6.82-.04,3.46-.8,6.64-2.96,9.44-.34.44-.48,1.04-.63,1.59-1.3,5.05-4.59,8.65-8.6,11.72-.77.59-1.5,1.19-1.66,2.15-.62,3.64-2.88,6.2-5.56,8.46-2.28,1.92-4.78,3.53-7.58,4.63-.69.27-1.39.59-2.42.28,1.4-.59,2.71-.84,3.89-1.44,4.07-2.06,7.52-4.83,10.03-8.67.59-.9.88-1.93,1.08-2.98.2-1.1.74-1.9,1.72-2.54,3.39-2.21,6.01-5.27,7.61-8.86,1.16-2.59,2.24-5.21,3.53-7.76,1.46-2.89,1.32-6.09.83-9.24-.16-1.03-.72-1.85-1.87-2.51Z"/><path class="cls-2" d="m167.61,87.99c-1.43,2.88-3.87,4.94-5.99,7.26-.26.28-.53.61-1,.52,0,0,.03.03.03.02,1.91-2.09,3.82-4.18,5.71-6.27.2-.22.46-.48.23-.82-.2-.31-.53-.25-.85-.23-1.35.08-2.52-.22-3.43-1.35-1.12-1.39-1.18-1.99-.04-3.37.33-.4.75-.76,1.18-1.06.62-.42.73-.78.14-1.35-1.49-1.46-1.19-3.73.71-4.72,2.7-1.39,5.55-1.88,8.49-.75.84.32,1.53.41,2.12-.38.1-.14.27-.29.42-.31,2.05-.22,2.93-1.74,3.76-3.33.2-.38.76-.75.45-1.14-.34-.42-1.06-.38-1.5-.16-1.05.53-1.99.11-2.97-.13-.6-.14-1.02-.49-1.29-1.19.78-.11,1.36.59,2.06.33.32-.12.74-.03.91-.43.18-.43-.01-.76-.33-1.06-.2-.19-.63-.32-.36-.72.2-.3.52-.26.85-.18.84.19,1.69.37,2.54.55-.05.18-.05.3-.1.33-.51.28-1.4.42-.87,1.26.44.69,1.14.5,1.74.03.42-.32.92-.56,1.3-.92,2.16-2.04,1.99-3.67-.69-5.02-.2-.1-.43-.13-.63-.22-1.19-.53-1.36-1.15-.6-2.22,1.5-2.12,3.08-2.83,5.03-2.24,1.81.54,2.52,1.44,2.59,3.3.03.67.23.89,1,1.17,2.19.81,3.32,4.54,2.32,6.78-.51,1.13-1.29,2-2.28,2.7-1.53,1.07-3.17.9-4.39-.52-.44-.51-.81-1.06-1.58-1.06,0,0,0,.02,0,.02.24-.52.51-1.03.69-1.57.12-.36.24-.81-.2-1.08-.36-.22-.7,0-.98.22-.78.61-1.26,1.47-1.78,2.28-1.11,1.74-2.12,3.56-3.3,5.25-.54.78-.89,1.46-.71,2.42.08.43.15.97-.56,1.54.26-1.84-.56-2.92-1.95-3.61-1.91-.94-3.94-1.01-5.98-.63-.95.18-1.88.48-2.77.91-1.05.51-1.77,1.24-1.68,2.45.08,1.06.57,1.92,1.67,2.31.14.05.26.2.49.39-.76.36-1.43.68-1.94,1.23-.65.69-1.6,1.24-1.22,2.43.43,1.36,1.83,2.45,3.16,2.45.79,0,1.59-.08,2.38-.12l-.02-.03Zm18.58-23.79c.14-.39.21-.54.26-.7.74-2.07.36-3.16-1.43-4.09-1.62-.84-3.57-.38-4.58,1.07-.79,1.14-.35,2.24,1,2.32,1.06.07,1.89.79,2.99.84.61.03,1.26.64,1.12,1.66-.14,1.01-.23,1.98-.67,2.94-.66,1.42-.15,2.41,1.14,2.53.37.03,1.01-.14.93.39-.07.48-.72.59-1.22.44-.24-.07-.45-.26-.66-.42-.25-.18-.51-.5-.8-.22-.36.34-.17.82.11,1.06.73.63,1.46,1.24,2.61.9,1.23-.37,2.04-1.17,2.78-2.13.94-1.21,1.17-3.49.28-4.86-.82-1.26-1.95-2.18-3.84-1.73Z"/><path class="cls-2" d="m90.83,90.34c2.13-1.36,4.54-1.8,6.99-1.66,4.55.25,9.2.65,12.84,3.69,2.22,1.85,4.58,2.41,7.3,2.76,7.87,1,12.36,6.18,15.34,12.99.6,1.38,1.16,2.77,1.81,4.13.61,1.27,1.42,1.44,2.69,1,1.77-.62,3.61-1.07,5.41-1.59.03.1.06.21.09.31-2.19.67-4.38,1.35-6.57,2.02-1.57.48-3.21.59-4.83.82-1.71.24-3.24.88-4.58,1.98-.53.43-1.11.8-1.72,1.12.44-.95,1.33-1.36,2.11-1.91.72-.51,1.39-1.12,1.21-2.05-.18-.93-.88-1.29-1.9-1.23-.88.05-.58-.81-.7-1.32-.12-.51,0-.78.62-.9,1.12-.22,1.29-.79.51-1.6-.65-.67-.97-1.46-1.15-2.32.22-.6,1.37.99,1.14-.51-.08-.54-.67-.93-.49-1.75.95,1.71,1.76,3.32,2.08,5.1.25,1.41.78,2.71,1.23,4.05.18.53.42.95,1.02.71.58-.23.17-.68.06-1.02-.24-.74-.77-1.4-.55-2.35.86.37.42,1.55,1.5,1.97-.07-1.23-.47-2.2-.94-3.14-.29-.58-.65-1.06.13-1.57.48-.31.16-.8.03-1.21-.77-2.4-2.03-4.52-3.8-6.32-3.69-3.77-8.18-5.52-13.45-5.26-.57.03-1.02.04-1.44-.41-2.82-3.08-6.45-4.54-10.49-5.3-3.93-.74-7.76-.6-11.54.72l.03.03Z"/><path class="cls-2" d="m64.82,156.45c-2.62.08-5.25,0-7.85.27-2.52.27-5.13.2-7.52,1.45.97-1.22,2.02-2.3,2.89-3.55,1.59-2.27,2.71-4.77,3.76-7.28,1.34-3.19,3.37-5.92,5.94-8.02,2.38-1.94,4.4-4.07,6.44-6.33,1.92-2.13,4.77-3.54,7.68-4.28,1.93-.49,3.59-1.13,5.07-2.61,2.49-2.48,5.86-3.13,9.21-3.74,6.15-1.12,12.13-.21,18.02,1.5,2.6.76,4.97,2.13,7.4,3.3.8.38,1.45.48,2.27.21,2.29-.75,4.6-1.45,6.93-2.09-.88.8-2.04,1-3.1,1.38-1.17.41-2.43.56-3.58,1-1.44.55-2.62.21-3.91-.48-4.46-2.39-9.24-3.82-14.28-4.46-2.58-.33-5.17-.55-7.68-.03-2.11.43-4.34.81-6.1,2.3-.13.11-.35.24-.47.21-1.44-.44-2.44.74-3.69.97-.54.1-1.02.4-1.35.82-1.04,1.33-2.5,1.77-4.05,2.05-2.93.53-5.34,2.19-7.64,3.87-1.3.94-2.06,2.6-2.33,4.3-.1.64-.38.96-.96,1.08-1.94.38-3.18,1.84-4.65,2.96-3.22,2.46-4.62,5.98-6,9.59-.58,1.5-1.67,2.8-2.54,4.19-.14.23-.3.44-.43.67-.2.34-.52.73-.32,1.09.28.5.8.15,1.21.11,3.88-.36,7.73-1.17,11.65-.43,0,0-.01,0-.01,0Z"/><path class="cls-2" d="m101.71,119.64c-1.72.81-3.55.78-5.29.31-3.73-1.01-6.92-3.01-9.39-5.97-1.43-1.71-3.38-2.41-5.28-3.19-4.23-1.74-7.88-4.18-10.7-7.84-1.73-2.24-3.66-4.33-5.53-6.47-1.26-1.43-2.52-2.88-4.54-3.28-.25-.05-.47-.25-.53-.64.74-.04,1.29-.23,2.1.41,4.44,3.45,7.33,8.28,11.22,12.22,1.42,1.44,2.95,2.66,4.76,3.56,2.07,1.02,4.12,2.08,6.28,2.9.81.31,1.4.83,1.94,1.54,1.85,2.43,4.47,3.84,7.1,5.26,2.5,1.35,5.13,1.62,7.88,1.22l-.02-.02Z"/><path class="cls-2" d="m177.8,61.87c-1,.28-1.41.11-1.69-.62-3.12-8.14-9.47-12.17-17.74-13.53-2.69-.44-5.43.08-7.94,1.18-1.8.79-3.58,1.52-5.57,1.61-2.32.1-4.12,1.14-5.17,3.19-.97,1.89-2.58,2.52-4.5,2.78-.26.03-.52.08-.81.13.18-.43.6-.46.93-.49,1.89-.22,3.09-1.32,4.1-2.83,1.23-1.83,2.84-3.03,5.25-3.11,1.57-.05,3.11-.61,4.6-1.24,5.15-2.19,10.37-2.34,15.48.02,2.48,1.15,4.8,2.68,6.95,4.4,1.98,1.58,2.9,3.88,4.11,5.98.52.9.77,1.95,2,2.56Z"/><path class="cls-2" d="m182.3,71.13c-.01,1.36-.69,2.54-1.47,3.49-.98,1.19-.68,1.95.16,2.96,1.69,2.05,1.43,4.77-.5,6.55-1.28,1.19-2.73,1.6-4.41.99-.42-.15-.82-.34-1.24-.48-1.29-.45-1.35-.66-.34-1.56.41-.37.79-.63.04-1.06-.41-.24-.28-.61.02-.88.38-.34.82-.27,1.02.13.54,1.08,1.88,1.46,2.26,2.69.15.48.64.7,1.21.53,1.11-.32,2.51-1.99,2.59-3.13.11-1.7-.45-3.14-1.8-4.21-.45-.36-.82-.07-1.06.39-.4.79-.84,1.55-1.03,2.43-.07.34-.19.69-.38.97-.18.25-.52.41-.83.21-.39-.26-.08-.51.07-.78,1.76-3.16,4.06-5.98,5.68-9.23,0,0,0-.03,0-.03Z"/><path class="cls-2" d="m117.08,160.54c.28-2.24-.06-4.55.84-6.76-1.76,1.19-3.57,2.31-3.88,4.63-.19,1.39-.61,2.65-1.34,3.84-.75,1.21-1.06,2.62-1.52,3.95-.17.49-.26,1.02-.99,1.58,1.25-2.63,1.46-5.29,2.71-7.61.31-.58.43-1.08-.1-1.68-.41-.47-.33-.85.38-1.36,2.2-1.56,4.07-3.48,4.78-6.22.14-.53.5-.88,1.04-.85.62.04.41.57.41.94-.01,1.55-.25,3.07-.89,4.5-.26.58-.27,1.2-.3,1.82-.07,1.16-.34,2.26-1.12,3.22Z"/><path class="cls-2" d="m90.45,100.69c.44.85,1.04,1.66,1.27,2.56.56,2.13,2.23,2.96,3.99,3.75.47.21,1.02.26,1.59.98-1.88-.31-3.13-1.27-4.5-1.97-2.99-1.54-6-3.06-9.01-4.56-.3-.15-.7-.09-1.04-.17-1.78-.46-3.83-.2-5.09-2.07-.39-.58-1.21-.87-2.14-1.1.61-.59,1.24-.61,1.64-.25,1.2,1.09,2.65,1.46,4.16,1.87,2.86.77,5.13,2.78,7.86,3.87.33.13.62.37.95.47.39.13.81.62,1.2.21.34-.36.04-.86-.12-1.25-.3-.73-.67-1.44-1.01-2.15.09-.06.17-.12.26-.17Z"/><path class="cls-2" d="m144.02,70.92c-3.48,1.66-7.11,1.91-10.8.71-1.68-.55-3.35-.6-5.11-.39-3.09.37-5.66-1.11-8.17-2.67-2.69-1.67-4.72-4.01-6.49-6.57-1.03-1.49-1.98-3.04-3.16-4.42-.23-.26-.47-.55-.39-.94.04-.2.23-.28.42-.23.37.1.55.37.72.71,2.5,4.92,5.68,9.29,10.58,12.09,2.41,1.38,5.01,2.28,7.88,1.47,1.06-.3,2.07-.11,3.11.3,2.74,1.08,5.53,1.54,8.43.5.94-.34,1.99-.38,2.99-.56Z"/><path class="cls-2" d="m178.48,63.29c-1.95.79-3.3,2.2-4.61,3.67-.28.32-.66.63-.99.18-.3-.42.25-.56.48-.78.22-.2.62-.34.46-.71-.21-.49-.57-.16-.9-.09-.29.06-.62.05-.91-.02-1-.25-1.93-.24-2.77.46-.22.18-.48.33-.67.02-.19-.31.05-.51.34-.55.92-.11,1.02-.77.96-1.46-.09-.96.32-1.2,1.24-1.17,1.02.03,2.04.05,3.05.2,1.41.21,2.79.93,4.32.25Z"/><path class="cls-2" d="m101.73,119.66c1.57-.42,2.83.35,3.87,1.29,1.32,1.19,2.84,1.77,4.53,2.03,7.32,1.1,14.12-.3,20.4-4.2.41-.26.78-.59,1.14-.92,2.69-2.48,3.16-2.67,7.22-2.76-.68.44-1.27.45-1.84.46-1.54.03-2.92.57-3.98,1.61-4.55,4.42-10.2,6.02-16.32,6.47-2.71.2-5.35-.13-8.02-.75-1.61-.37-2.82-1.16-4.08-2-.9-.6-1.92-.89-2.93-1.24,0,0,.02.01.02.01Z"/><path class="cls-2" d="m197.94,31.8c.51-2.88,1.03-5.74,1.31-8.65.09-.92.22-2.07,1.5-2.17.91-.07,2.15,1.63,2.03,2.78-.13,1.23-.33,2.46-.68,3.65-1.34,4.57-2.4,9.22-4.24,13.64-1.13,2.72-2.22,5.46-3.38,8.17.29-1.95,1.19-3.7,1.93-5.48,1.96-4.7,3.6-9.48,4.71-14.45.31-1.38.71-2.74,1.01-4.12.15-.68.35-1.39.03-2.09-.34-.75-.86-1.59-1.65-1.56-.96.04-.84,1.08-.93,1.81-.26,2.02-.5,4.04-.75,6.06-.11.87-.37,1.69-.89,2.42Z"/><path class="cls-2" d="m116.89,118.02c0-.63.31-1.09.79-1.45.45-.33.73-.77.87-1.3.11-.41.56-.82.25-1.23-.38-.49-.89-.12-1.34,0-.17.05-.45.14-.5.08-1.03-1.29-2.96-.13-4-1.58,1.14-.34.92-1.14.69-2.05-.74-3.05-1.98-5.84-4.08-8.43,1.9,1.44,3.61,4.32,4.17,6.93.21.99.4,1.99.51,2.99.07.66.41.92,1.01,1.01,1.12.17,2.29.22,3.34.44,1.98.41,3.96.4,5.93.68.99.14,1.99.18,2.99.27,0,.12-.02.25-.02.37-1.29-.11-2.6-.12-3.87-.36-1.57-.3-2.86-.05-4,1.13-.86.89-1.83,1.66-2.76,2.48l.03.02Z"/><path class="cls-2" d="m143.97,173.45c1.59-.87,3.16-1.75,4.76-2.59,4.58-2.42,8.45-5.7,11.65-9.72,1.48-1.86,2.6-4.01,2.77-6.49.06-.85.46-1.53,1.02-2.11.89-.92,1.82-1.8,2.79-2.65-.53,1.08-1.48,1.83-2.26,2.7-.7.79-1.14,1.62-1.25,2.7-.27,2.61-1.68,4.74-3.28,6.69-3.65,4.45-8.15,7.86-13.34,10.36-.91.44-1.8.92-2.7,1.39-.05-.09-.1-.19-.16-.28Z"/><path class="cls-2" d="m86.03,177.61c5.95-2.84,11.11-6.68,16.35-10.4-1.33,1.2-2.55,2.55-4.02,3.56-1.21.84-2.58,1.46-3.79,2.35-1.75,1.28-3.48,2.56-4.76,4.35-.28.4-.75.51-1.19.47-.87-.07-1.73-.22-2.59-.33Z"/><path class="cls-2" d="m107.84,165.14c-.53-.36-.01-1.12-.67-1.04-.66.08-1.25.67-1.16,1.27.21,1.37-.43,1.99-1.51,2.6-.51.29-.77,1.05-1.09,1.63-.34.63-.71,1.2-1.59,1.66.33-1.41,1.26-2.25,1.79-3.29.38-.73.82-1.4-1-1.13,3.06-2.45,5.86-4.56,8.54-6.85-1.49,1.46-2.77,3.03-3.33,5.15Z"/><path class="cls-2" d="m146.25,70.73c2.17-1.22,4.15-.92,6.34.13,4.21,2.01,8.57,1.98,12.88.09,2.15-.94,4.29-1.87,6.2-3.28-.19.59-.66.9-1.14,1.16-2.45,1.35-4.93,2.67-7.63,3.42-3.45.96-6.93.68-10.16-.74-2.16-.95-4.18-1.67-6.49-.78Z"/><path class="cls-2" d="m151.31,53.72c3.2,1.66,5.51,4.32,8.04,6.64,2.02,1.86,4.06,2.37,6.53,2.3.26,0,.54-.04.79.02.21.05.44.21.36.47-.04.12-.28.29-.39.26-1.37-.38-2.73.14-4.07.07-1.01-.05-2.11-.35-2.49-1.62-.2-.64-.79-1.05-1.3-1.48-2.23-1.88-4.46-3.76-6.68-5.66-.32-.27-.74-.49-.8-.99Z"/><path class="cls-2" d="m171.16,85.36c.65-2.69-.77-4.07-3.85-3.69-.88.11-1.71.38-1.71-.97,0-.12-.1-.24-.18-.35-.29-.45-1.37-.5-.84-1.34.33-.52,1.08-.26,1.62-.44.12-.04.25-.06.47-.1-.35.85,0,1.32.79,1.47,1.42.27,2.44,1.23,3.52,2.05,1.28.96,1.25,1.42.16,3.37Z"/><path class="cls-2" d="m91.7,144.95c-.04-1.68,1.1-2.79,1.84-4.1.35-.61,1.46-1.13.3-2.06-.25-.2.24-.78.64-.81,2.57-.22,4.7-1.75,7.2-2.23-1.91,1.31-4.42,1.54-6,3.48-1.48,1.81-2.5,3.9-3.97,5.72Z"/><path class="cls-2" d="m157.25,116.89c-.16.92-.82,1.47-1.44,2.06-1.82,1.74-3.76,3.38-5.15,5.52-1.7,2.63-1.66,4.68.29,7.1.38.47.26.62-.15.89-1.45.99-2.58,2.27-3.33,3.87.36-1.4,1.2-2.5,2.22-3.46.69-.65.88-1.14.17-1.99-1.38-1.65-.88-3.55-.21-5.27.82-2.09,2.54-3.59,4.02-5.23,1.12-1.24,2.5-2.21,3.58-3.5Z"/><path class="cls-2" d="m81.82,143.99c-1.06,1.04-2.14,2.08-3.19,3.14-.44.45-.65.1-.96-.18-.72-.63-1.33-.77-1.87.29-.5.98-1.51.66-2.38.64,1.27-.09,2.05-.83,2.57-1.89.14-.29.33-.61.66-.55,1.81.3,3.07-.92,4.55-1.55.15-.06.31-.09.47-.14.05.08.1.16.14.24Z"/><path class="cls-2" d="m121.6,112.21c-1.06-4.84-3.25-9.11-6.46-12.86,3.18,2.27,7.02,9.84,6.46,12.86Z"/><path class="cls-2" d="m144.97,62.46c.79.07,1.58.15,2.38.2.47.03,1.06.2,1.31-.35.24-.53-.23-.89-.57-1.23-.18-.18-.39-.34-.54-.68,3.32,3.27,7.43,1.86,11.32,2.01-1.82.97-3.64.45-5.46.34-2.82-.16-5.66.48-8.44-.3Z"/><path class="cls-2" d="m111.91,56.87c1.07.26,2.14.51,3.21.78,2,.51,3.95.46,5.84-.49,1.08-.55,2.13-.27,3.18.18-1.71.02-3.31.4-4.92.95-1.64.56-5.63-.21-7.31-1.41Z"/><path class="cls-2" d="m160.98,54.28c2.14,1.56,3.91,3.49,5.55,5.54.69.86,1.23,1.83,2.03,2.61.19.19.62.4.28.73-.28.27-.67.15-.97-.08-.13-.1-.25-.26-.32-.41-1.5-3.33-4.12-5.79-6.57-8.39Z"/><path class="cls-2" d="m156.44,143.03c1.17-1.42,1.55-3.2,2.28-4.87-1.1,3.57.39,7.02.63,10.52-.13.01-.26.02-.39.04-.25-1.53-.58-3.04-.72-4.58-.19-2.01-.13-2.01-1.81-1.13l.02.02Z"/><path class="cls-2" d="m92.77,139.13c-1.47,1.25-3.28,1.73-4.94,2.53-.82.39-1.49.93-2.19,1.46-.25.19-.6.35-.85.09-.33-.33-.31-.81-.3-1.25.01-.33.24-.44.54-.44,2.57.04,4.75-1.22,7.02-2.14.23-.09.48-.17.71-.25Z"/><path class="cls-2" d="m143.72,103.13c.61.02,1.84,2.12,1.52,2.62-.06.1-.19.2-.31.24-.81.29-1.36-.19-1.84-.7-.44-.47-.65-1.05-.27-1.68.2-.33.53-.44.89-.48Z"/><path class="cls-2" d="m141.64,115.67c-2.8,2.68-6.3,4.3-9.59,6.23,3.28-1.95,6.27-4.33,9.59-6.23Z"/><path class="cls-2" d="m107.83,154.19c3.33-.44,6.2-2.17,9.63-3.34-2.06,1.71-7.9,3.7-9.63,3.34Z"/><path class="cls-2" d="m193.68,44.87c1.19-3.35,2.38-6.7,3.57-10.05-.5,3.58-2.36,6.71-3.57,10.05Z"/><path class="cls-2" d="m147.05,155.02c-.02-2.99-2.19-5.46-2.12-8.47.54,2.86,2.55,5.37,2.12,8.47Z"/><path class="cls-2" d="m155.74,116.51c-1.34.79-2.71.75-3.98-.09-1.42-.94-1.93-2.33-1.59-4.02.37-.04.33.22.35.42.24,2.8,1.71,4,4.47,3.67.25-.03.52.03.78.05,0,0-.03-.03-.03-.03Z"/><path class="cls-2" d="m146.72,110.19c.17-1.16.9-1.56,1.67-1.9.6-.26,1.22-.49,1.83-.74.27-.11.61-.4.79.02.15.35-.12.86-.44.81-1.65-.27-2.42,1.24-3.85,1.81Z"/><path class="cls-2" d="m106.51,110.97c-.96-.19-1.4-.62-1.45-1.76-.07-1.59-1.08-2.93-1.82-4.33-.13-.25-.26-.51-.28-.82,1.08,1.35,2.14,2.74,2.46,4.48.17.92.41,1.75,1.06,2.44h.02Z"/><path class="cls-2" d="m91.2,177.92c1.54-1.24,2.57-3,4.3-3.98-1.32,1.47-2.14,3.47-4.3,3.98Z"/><path class="cls-2" d="m191.67,49.93c-.86,2.93-1.98,5.71-3.55,8.29,1.18-2.76,2.37-5.53,3.55-8.29Z"/><path class="cls-2" d="m156.43,143.01c.06,2.54-1.32,4.53-2.58,6.56.41-2.35,2.15-4.19,2.6-6.53,0,0-.02-.03-.02-.03Z"/><path class="cls-2" d="m166.08,97.17c.65.76,1.31,1.48,2.01,2.16.28.27.47.72.07,1.03-.41.32-.73,0-.97-.34-.62-.85-.94-1.81-1.1-2.86Z"/><path class="cls-2" d="m63.71,151.51c1.29-.73,2.54-1.53,4.07-1.59-1.28.74-2.36,1.95-4.07,1.59Z"/><path class="cls-2" d="m150.91,156.72c.75-1.36.91-2.95,1.7-4.29,0,1.65-.59,3.07-1.7,4.29Z"/><path class="cls-2" d="m165.1,83.97c.19.26,0,.5-.05.75-.16.75-.08,1.25.9,1.02.36-.09.71-.03.93.31.05.07,0,.28-.06.33-.29.19-.59.05-.88-.04-.13-.04-.24-.12-.36-.15-1.93-.45-1.94-.5-.48-2.21Z"/><path class="cls-2" d="m191.31,56.72c.97-2.06,1.78-4.18,2.64-6.28-.59,2.21-1.11,4.45-2.63,6.27h0Z"/><path class="cls-2" d="m74.47,90.47c-1.92.35-3.84.69-5.75,1.04-.02-.09-.03-.17-.05-.26,1.92-.35,3.84-.7,5.75-1.05.02.09.03.18.05.26Z"/><path class="cls-2" d="m90.8,90.31c-1.98,1.24-3.35,1.51-5.21.9,1.86.29,3.48-.64,5.24-.87,0,0-.03-.03-.03-.03Z"/><path class="cls-2" d="m116.86,118c-1.72.54-3.42,1.17-5.24,1.3,1.64-.86,3.39-1.31,5.26-1.28,0,0-.02-.02-.02-.02Z"/><path class="cls-2" d="m87.1,144.44c.24-.87.65-1.58,1.24-2.19.19-.19.46-.38.7-.22.27.18.13.49-.03.7-.54.67-1,1.43-1.91,1.71Z"/><path class="cls-2" d="m130.18,123.82c.03.14.06.19.04.22-.46.73-1.19,1-2,1.09-.18.02-.36-.24-.22-.37.61-.56,1.28-1.02,2.17-.95Z"/><path class="cls-2" d="m106.48,110.98c1.97.08,3.82.66,5.64,1.34-1.94-.18-3.75-.83-5.61-1.35,0,0-.03.01-.03.01Z"/><path class="cls-2" d="m138.88,62.41c1.1.32,2.21.58,3.64.22-1.23,1.05-2.31.96-3.64-.22Z"/><path class="cls-2" d="m98.01,173.72c-.33,1.3-1.44,1.93-2.3,2.78.88-.84,1.15-2.17,2.3-2.78Z"/><path class="cls-2" d="m138.27,176.78c1.21-1.2,3-1.33,4.3-2.37-1.22,1.18-2.83,1.64-4.3,2.34v.03Z"/><path class="cls-2" d="m148.04,52.68c1.18.47,1.86,1.45,2.39,2.59l-2.67-2.29c.09-.1.18-.2.27-.3Z"/><path class="cls-2" d="m167.63,88.03c.69-1.84,1.11-2.12,3-1.74-1.17.6-2.36.74-3.02,1.7,0,0,.02.04.02.04Z"/><path class="cls-2" d="m142.15,56.99c1.09,1.02,2.49,1.59,3.7,2.43-1.37-.6-2.79-1.13-3.7-2.43Z"/><path class="cls-2" d="m191.32,56.7c-.2,1.7-.97,3.17-1.98,4.54.66-1.5,1.32-3.01,1.98-4.52,0,0,0-.02,0-.02Z"/><path class="cls-2" d="m169.08,146.86c.67-1.15,1.09-2.42,1.75-3.57-.14,1.41-1.14,2.39-1.75,3.57Z"/><path class="cls-2" d="m152.69,110.91c-.11.27-.1.75-.5.63-.43-.13-.68-.56-.62-1.04.05-.4.39-.62.77-.55.6.11.34.6.36.95Z"/><path class="cls-2" d="m137.44,121.07c-.17.34-.33.75-.8.73-.28-.02-.74-.18-.68-.48.08-.45.51-.7.98-.74.29-.02.51.13.5.49Z"/><path class="cls-2" d="m101.8,133.43c-1.18.16-1.44.11-3.18-.66.71-.04,2.21.27,3.18.66Z"/><path class="cls-2" d="m138.26,176.75c-.22.03-.43.06-.65.11-.45.1-.94.74-1.3.28-.38-.48.38-.64.63-.95.69-.84.74.33,1.16.37.06,0,.11.13.16.21,0,0,0-.02,0-.02Z"/><path class="cls-2" d="m127.08,143.82c-.43-.94-.45-1.59.25-2.36.16.83.19,1.46-.25,2.36Z"/><path class="cls-2" d="m132.02,123.53c.73-.71,1.48-1.32,2.51-1.43-.84.48-1.67.95-2.51,1.43Z"/><path class="cls-2" d="m142.98,168.45c-.61.9-1.21,1.81-1.82,2.71.36-1.09,1.21-1.86,1.82-2.71Z"/><path class="cls-2" d="m148.22,95.15c.69-.62.76-1.42,1.58-1.3.2.03.34.2.28.37-.25.71-.93.67-1.86.94Z"/><path class="cls-2" d="m156.65,104.33c.93.24,1.64.19,1.81,1.03.04.2.03.57-.18.55-.78-.07-1.13-.68-1.63-1.59Z"/></svg>